v 29.544718 0.000000 0.000000
v 29.344946 3.429932 0.000000
v 29.544718 -0.000005 110.000000
v 29.344946 3.429927 110.000000
v 28.748335 6.813481 0.000000
v 28.748335 6.813476 110.000000
v 27.762953 10.104888 0.000000
v 27.762953 10.104883 110.000000
v 26.402124 13.259645 0.000001
v 26.402124 13.259641 110.000000
v 24.684252 16.235086 0.000001
v 24.684252 16.235081 110.000000
v 22.632566 18.990978 0.000001
v 22.632566 18.990973 110.000000
v 20.274815 21.490047 0.000001
v 20.274815 21.490042 110.000000
v 17.642881 23.698503 0.000001
v 17.642881 23.698498 110.000000
v 14.772359 25.586475 0.000001
v 14.772359 25.586470 110.000000
v 11.702065 27.128435 0.000001
v 11.702065 27.128429 110.000000
v 8.473520 28.303530 0.000001
v 8.473520 28.303524 110.000000
v 5.130386 29.095867 0.000001
v 5.130386 29.095861 110.000000
v 1.717873 29.494732 0.000001
v 1.717873 29.494726 110.000000
v -1.717873 29.494732 0.000001
v -1.717873 29.494726 110.000000
v -5.130386 29.095867 0.000001
v -5.130386 29.095861 110.000000
v -8.473520 28.303530 0.000001
v -8.473520 28.303524 110.000000
v -11.702065 27.128435 0.000001
v -11.702065 27.128429 110.000000
v -14.772359 25.586475 0.000001
v -14.772359 25.586470 110.000000
v -17.642881 23.698503 0.000001
v -17.642881 23.698498 110.000000
v -20.274815 21.490047 0.000001
v -20.274815 21.490042 110.000000
v -22.632566 18.990978 0.000001
v -22.632566 18.990973 110.000000
v -24.684252 16.235086 0.000001
v -24.684252 16.235081 110.000000
v -26.402124 13.259645 0.000001
v -26.402124 13.259641 110.000000
v -27.762953 10.104888 0.000000
v -27.762953 10.104883 110.000000
v -28.748335 6.813481 0.000000
v -28.748335 6.813476 110.000000
v -29.344946 3.429932 0.000000
v -29.344946 3.429927 110.000000
v -29.544718 0.000000 0.000000
v -29.544718 -0.000005 110.000000
v -29.344946 -3.429932 -0.000000
v -29.344946 -3.429937 110.000000
v -28.748335 -6.813481 -0.000000
v -28.748335 -6.813486 110.000000
v -27.762953 -10.104888 -0.000000
v -27.762953 -10.104893 110.000000
v -26.402124 -13.259645 -0.000001
v -26.402124 -13.259650 110.000000
v -24.684252 -16.235086 -0.000001
v -24.684252 -16.235092 110.000000
v -22.632566 -18.990978 -0.000001
v -22.632566 -18.990984 110.000000
v -20.274815 -21.490047 -0.000001
v -20.274815 -21.490053 110.000000
v -17.642881 -23.698503 -0.000001
v -17.642881 -23.698509 110.000000
v -14.772359 -25.586475 -0.000001
v -14.772359 -25.586481 110.000000
v -11.702065 -27.128435 -0.000001
v -11.702065 -27.128441 110.000000
v -8.473520 -28.303530 -0.000001
v -8.473520 -28.303535 110.000000
v -5.130386 -29.095867 -0.000001
v -5.130386 -29.095873 110.000000
v -1.717873 -29.494732 -0.000001
v -1.717873 -29.494738 110.000000
v 1.717873 -29.494732 -0.000001
v 1.717873 -29.494738 110.000000
v 5.130386 -29.095867 -0.000001
v 5.130386 -29.095873 110.000000
v 8.473520 -28.303530 -0.000001
v 8.473520 -28.303535 110.000000
v 11.702065 -27.128435 -0.000001
v 11.702065 -27.128441 110.000000
v 14.772359 -25.586475 -0.000001
v 14.772359 -25.586481 110.000000
v 17.642881 -23.698503 -0.000001
v 17.642881 -23.698509 110.000000
v 20.274815 -21.490047 -0.000001
v 20.274815 -21.490053 110.000000
v 22.632566 -18.990978 -0.000001
v 22.632566 -18.990984 110.000000
v 24.684252 -16.235086 -0.000001
v 24.684252 -16.235092 110.000000
v 26.402124 -13.259645 -0.000001
v 26.402124 -13.259650 110.000000
v 27.762953 -10.104888 -0.000000
v 27.762953 -10.104893 110.000000
v 28.748335 -6.813481 -0.000000
v 28.748335 -6.813486 110.000000
v 29.344946 -3.429932 -0.000000
v 29.344946 -3.429937 110.000000
vn 0.9983 0.0581 0.0000
vn 0.9848 0.1736 0.0000
vn 0.9580 0.2868 0.0000
vn 0.9182 0.3961 0.0000
vn 0.8660 0.5000 0.0000
vn 0.8021 0.5972 0.0000
vn 0.7274 0.6862 0.0000
vn 0.6428 0.7660 0.0000
vn 0.5495 0.8355 0.0000
vn 0.4488 0.8936 0.0000
vn 0.3420 0.9397 0.0000
vn 0.2306 0.9730 0.0000
vn 0.1161 0.9932 0.0000
vn 0.0000 1.0000 0.0000
vn -0.1161 0.9932 0.0000
vn -0.2306 0.9730 0.0000
vn -0.3420 0.9397 0.0000
vn -0.4488 0.8936 0.0000
vn -0.5495 0.8355 0.0000
vn -0.6428 0.7660 0.0000
vn -0.7274 0.6862 0.0000
vn -0.8021 0.5972 0.0000
vn -0.8660 0.5000 0.0000
vn -0.9182 0.3961 0.0000
vn -0.9580 0.2868 0.0000
vn -0.9848 0.1736 0.0000
vn -0.9983 0.0581 0.0000
vn -0.9983 -0.0581 -0.0000
vn -0.9848 -0.1736 -0.0000
vn -0.9580 -0.2868 -0.0000
vn -0.9182 -0.3961 -0.0000
vn -0.8660 -0.5000 -0.0000
vn -0.8021 -0.5972 -0.0000
vn -0.7274 -0.6862 -0.0000
vn -0.6428 -0.7660 -0.0000
vn -0.5495 -0.8355 -0.0000
vn -0.4488 -0.8936 -0.0000
vn -0.3420 -0.9397 -0.0000
vn -0.2306 -0.9730 -0.0000
vn -0.1161 -0.9932 -0.0000
vn 0.0000 -1.0000 -0.0000
vn 0.1161 -0.9932 -0.0000
vn 0.2306 -0.9730 -0.0000
vn 0.3420 -0.9397 -0.0000
vn 0.4488 -0.8936 -0.0000
vn 0.5495 -0.8355 -0.0000
vn 0.6428 -0.7660 -0.0000
vn 0.7274 -0.6862 -0.0000
vn 0.8021 -0.5972 -0.0000
vn 0.8660 -0.5000 -0.0000
vn 0.9182 -0.3961 -0.0000
vn 0.9580 -0.2868 -0.0000
vn 0.9848 -0.1736 -0.0000
vn 0.9983 -0.0581 -0.0000
vn -0.0000 0.0000 -1.0000
vn 0.0000 0.0000 1.0000
vn 0.0001 0.0000 1.0000
s 1
f 1//1 2//1 3//1
f 3//1 2//1 4//1
f 2//2 5//2 4//2
f 4//2 5//2 6//2
f 5//3 7//3 6//3
f 6//3 7//3 8//3
f 7//4 9//4 8//4
f 8//4 9//4 10//4
f 9//5 11//5 10//5
f 10//5 11//5 12//5
f 11//6 13//6 12//6
f 12//6 13//6 14//6
f 13//7 15//7 14//7
f 14//7 15//7 16//7
f 15//8 17//8 16//8
f 16//8 17//8 18//8
f 17//9 19//9 18//9
f 18//9 19//9 20//9
f 19//10 21//10 20//10
f 20//10 21//10 22//10
f 21//11 23//11 22//11
f 22//11 23//11 24//11
f 23//12 25//12 24//12
f 24//12 25//12 26//12
f 25//13 27//13 26//13
f 26//13 27//13 28//13
f 28//14 29//14 30//14
f 27//14 29//14 28//14
f 30//15 31//15 32//15
f 29//15 31//15 30//15
f 32//16 33//16 34//16
f 31//16 33//16 32//16
f 34//17 35//17 36//17
f 33//17 35//17 34//17
f 36//18 37//18 38//18
f 35//18 37//18 36//18
f 38//19 39//19 40//19
f 37//19 39//19 38//19
f 40//20 41//20 42//20
f 39//20 41//20 40//20
f 42//21 43//21 44//21
f 41//21 43//21 42//21
f 44//22 45//22 46//22
f 43//22 45//22 44//22
f 45//23 47//23 46//23
f 46//23 47//23 48//23
f 47//24 49//24 48//24
f 48//24 49//24 50//24
f 49//25 51//25 50//25
f 50//25 51//25 52//25
f 51//26 53//26 52//26
f 52//26 53//26 54//26
f 53//27 55//27 54//27
f 54//27 55//27 56//27
f 55//28 57//28 56//28
f 56//28 57//28 58//28
f 57//29 59//29 58//29
f 58//29 59//29 60//29
f 59//30 61//30 60//30
f 60//30 61//30 62//30
f 61//31 63//31 62//31
f 62//31 63//31 64//31
f 63//32 65//32 64//32
f 64//32 65//32 66//32
f 65//33 67//33 66//33
f 66//33 67//33 68//33
f 67//34 69//34 68//34
f 68//34 69//34 70//34
f 69//35 71//35 70//35
f 70//35 71//35 72//35
f 71//36 73//36 72//36
f 72//36 73//36 74//36
f 73//37 75//37 74//37
f 74//37 75//37 76//37
f 75//38 77//38 76//38
f 76//38 77//38 78//38
f 77//39 79//39 78//39
f 78//39 79//39 80//39
f 79//40 81//40 80//40
f 80//40 81//40 82//40
f 81//41 83//41 82//41
f 82//41 83//41 84//41
f 83//42 85//42 84//42
f 84//42 85//42 86//42
f 85//43 87//43 86//43
f 86//43 87//43 88//43
f 87//44 89//44 88//44
f 88//44 89//44 90//44
f 90//45 91//45 92//45
f 89//45 91//45 90//45
f 92//46 93//46 94//46
f 91//46 93//46 92//46
f 94//47 95//47 96//47
f 93//47 95//47 94//47
f 96//48 97//48 98//48
f 95//48 97//48 96//48
f 98//49 99//49 100//49
f 97//49 99//49 98//49
f 100//50 101//50 102//50
f 99//50 101//50 100//50
f 102//51 103//51 104//51
f 101//51 103//51 102//51
f 104//52 105//52 106//52
f 103//52 105//52 104//52
f 106//53 107//53 108//53
f 108//54 107//54 3//54
f 105//53 107//53 106//53
f 107//54 1//54 3//54
f 89//55 105//55 93//55
f 93//55 105//55 97//55
f 97//55 105//55 99//55
f 99//55 105//55 101//55
f 101//55 105//55 103//55
f 33//55 31//55 35//55
f 35//55 31//55 37//55
f 37//55 31//55 39//55
f 65//55 63//55 67//55
f 105//55 1//55 107//55
f 29//55 27//55 31//55
f 31//55 27//55 39//55
f 39//55 2//55 89//55
f 71//55 77//55 73//55
f 89//55 2//55 105//55
f 73//55 77//55 75//55
f 27//55 2//55 39//55
f 105//55 2//55 1//55
f 61//55 59//55 63//55
f 67//55 59//55 69//55
f 63//55 59//55 67//55
f 2//55 7//55 5//55
f 23//55 21//55 25//55
f 77//55 81//55 79//55
f 2//55 9//55 7//55
f 57//55 55//55 59//55
f 69//55 55//55 71//55
f 59//55 55//55 69//55
f 21//55 19//55 25//55
f 9//55 13//55 11//55
f 27//55 13//55 2//55
f 2//55 13//55 9//55
f 81//55 85//55 83//55
f 71//55 85//55 77//55
f 77//55 85//55 81//55
f 17//55 15//55 19//55
f 25//55 15//55 27//55
f 19//55 15//55 25//55
f 27//55 15//55 13//55
f 51//55 49//55 53//55
f 47//55 45//55 49//55
f 53//55 45//55 55//55
f 85//55 45//55 87//55
f 87//55 45//55 89//55
f 55//55 45//55 71//55
f 71//55 45//55 85//55
f 49//55 45//55 53//55
f 89//55 93//55 91//55
f 93//55 97//55 95//55
f 45//55 39//55 89//55
f 41//55 39//55 43//55
f 43//55 39//55 45//55
f 106//56 90//56 94//56
f 106//56 94//56 98//56
f 106//56 98//56 100//56
f 106//56 100//56 102//56
f 106//56 102//56 104//56
f 32//56 34//56 36//56
f 32//56 36//56 38//56
f 32//56 38//56 40//56
f 64//56 66//56 68//56
f 3//56 106//56 108//56
f 28//56 30//56 32//56
f 28//56 32//56 40//56
f 4//56 40//56 90//56
f 78//56 72//56 74//56
f 4//56 90//56 106//56
f 78//56 74//56 76//56
f 4//56 28//56 40//56
f 4//56 106//56 3//56
f 60//56 62//56 64//56
f 60//56 68//56 70//56
f 60//56 64//56 68//56
f 8//57 4//56 6//56
f 22//56 24//56 26//56
f 82//56 78//56 80//56
f 10//56 4//56 8//57
f 56//56 58//56 60//56
f 56//56 70//56 72//56
f 56//56 60//56 70//56
f 20//56 22//56 26//56
f 14//56 10//56 12//56
f 14//56 28//56 4//56
f 14//56 4//56 10//56
f 86//56 82//56 84//56
f 86//56 72//56 78//56
f 86//56 78//56 82//56
f 16//56 18//56 20//56
f 16//56 26//56 28//56
f 16//56 20//56 26//56
f 16//56 28//56 14//56
f 50//56 52//56 54//56
f 46//56 48//56 50//56
f 46//56 54//56 56//56
f 46//56 86//56 88//56
f 46//56 88//56 90//56
f 46//56 56//56 72//56
f 46//56 72//56 86//56
f 46//56 50//56 54//56
f 94//56 90//56 92//56
f 98//56 94//56 96//56
f 40//56 46//56 90//56
f 40//56 42//56 44//56
f 40//56 44//56 46//56
